<?xml version="1.0" standalone="no"?><!DOCTYPE svg PUBLIC "-//W3C//DTD SVG 1.1//EN" "http://www.w3.org/Graphics/SVG/1.1/DTD/svg11.dtd"><svg t="1597116851718" class="icon" viewBox="0 0 1433 1024" version="1.1" xmlns="http://www.w3.org/2000/svg" p-id="44796" xmlns:xlink="http://www.w3.org/1999/xlink" width="279.8828125" height="200"><defs><style type="text/css"></style></defs><path d="M859.8528 56.7296L867.328 48.128a76.8 76.8 0 0 1 99.9424-7.4752L975.872 48.128l409.6 409.6 3.6864 3.8912 5.7344 7.3728 5.5296 9.728 3.584 8.8064 2.7648 10.5472 1.024 8.704v10.4448l-1.8432 12.288-1.9456 6.9632-2.3552 6.144-3.584 7.168-3.2768 5.2224-2.7648 3.8912-6.5536 7.3728-409.6 409.6a76.8 76.8 0 0 1-116.0192-99.9424l7.4752-8.6016 278.4256-278.528H102.4a76.8 76.8 0 0 1-76.0832-66.3552L25.6 512a76.8 76.8 0 0 1 66.3552-76.0832L102.4 435.2h1043.3536l-278.528-278.528a76.8 76.8 0 0 1-7.3728-99.9424L867.328 48.128l-7.4752 8.6016z" fill="#CCCCCC" p-id="44797"></path></svg>